<?xml version="1.0" encoding="UTF-8" standalone="no"?>
<svg
   xmlns:dc="http://purl.org/dc/elements/1.1/"
   xmlns:cc="http://creativecommons.org/ns#"
   xmlns:rdf="http://www.w3.org/1999/02/22-rdf-syntax-ns#"
   xmlns:svg="http://www.w3.org/2000/svg"
   xmlns="http://www.w3.org/2000/svg"
   xmlns:sodipodi="http://sodipodi.sourceforge.net/DTD/sodipodi-0.dtd"
   xmlns:inkscape="http://www.inkscape.org/namespaces/inkscape"
   viewBox="0 0 48 48"
   id="svg2"
   version="1.1"
   inkscape:version="0.91 r13725"
   sodipodi:docname="imagewriter.svg">
  <metadata
     id="metadata56">
    <rdf:RDF>
      <cc:Work
         rdf:about="">
        <dc:format>image/svg+xml</dc:format>
        <dc:type
           rdf:resource="http://purl.org/dc/dcmitype/StillImage" />
      </cc:Work>
    </rdf:RDF>
  </metadata>
  <sodipodi:namedview
     pagecolor="#ffffff"
     bordercolor="#666666"
     borderopacity="1"
     objecttolerance="10"
     gridtolerance="10"
     guidetolerance="10"
     inkscape:pageopacity="0"
     inkscape:pageshadow="2"
     inkscape:window-width="1702"
     inkscape:window-height="945"
     id="namedview54"
     showgrid="false"
     inkscape:zoom="4.9166667"
     inkscape:cx="-25.525424"
     inkscape:cy="24"
     inkscape:window-x="565"
     inkscape:window-y="330"
     inkscape:window-maximized="0"
     inkscape:current-layer="svg2" />
  <defs
     id="defs4">
    <linearGradient
       gradientTransform="matrix(.84891 0 0 1.67969-409.61-905.25)"
       gradientUnits="userSpaceOnUse"
       y2="543.09"
       x2="0"
       y1="544.15"
       id="3">
      <stop
         stop-color="#1e56e6"
         id="stop7" />
      <stop
         offset="1"
         stop-color="#1f9aed"
         id="stop9" />
    </linearGradient>
    <linearGradient
       gradientUnits="userSpaceOnUse"
       y2="6.259"
       x2="0"
       y1="9.824"
       id="2">
      <stop
         stop-color="#040404"
         id="stop12" />
      <stop
         offset="1"
         stop-color="#121212"
         stop-opacity=".908"
         id="stop14" />
    </linearGradient>
    <linearGradient
       gradientUnits="userSpaceOnUse"
       y2="-34.576"
       x2="-28.18"
       y1="2.947"
       x1="-28.387"
       id="0">
      <stop
         stop-color="#b6b9bf"
         id="stop17" />
      <stop
         offset="1"
         stop-color="#dddfe2"
         id="stop19" />
    </linearGradient>
    <linearGradient
       gradientTransform="matrix(.41726 0 0 .41031-55.34-36.651)"
       x2="122.72"
       x1="10.09"
       gradientUnits="userSpaceOnUse"
       id="1">
      <stop
         stop-color="#1a1a1a"
         id="stop22" />
      <stop
         offset=".111"
         stop-color="#2c2c2e"
         id="stop24" />
      <stop
         offset=".29"
         stop-color="#2b2b2d"
         id="stop26" />
      <stop
         offset=".512"
         stop-color="#2a2b2d"
         id="stop28" />
      <stop
         offset=".752"
         stop-color="#2b2b2d"
         id="stop30" />
      <stop
         offset=".897"
         stop-color="#323232"
         id="stop32" />
      <stop
         offset="1"
         stop-color="#171717"
         id="stop34" />
    </linearGradient>
  </defs>
  <g
     transform="matrix(.99999 0 0 .99999 51.629 35.882)"
     enable-background="new"
     id="g36">
    <path
       d="m-51.12 3.496l.417 6.576c0 .682.558 1.231 1.252 1.231h43.656c.693 0 1.252-.549 1.252-1.231l.417-6.576h-46.994"
       fill="url(#1)"
       id="path38" />
    <path
       d="m-47.37-35.05h39.07c.693 0 1.252.549 1.252 1.231l2.921 37.12c0 .682-.558 1.231-1.252 1.231h-44.493c-.693 0-1.252-.549-1.252-1.231l2.503-37.12c0-.682.558-1.231 1.252-1.231"
       fill="url(#0)"
       id="path40" />
    <rect
       width="19.255"
       height="1.291"
       x="-37.18"
       y="7.572"
       fill="url(#3)"
       rx=".646"
       id="rect42" />
    <ellipse
       ry="1.783"
       rx="1.783"
       cy="8.264"
       cx="-9.942"
       opacity=".452"
       fill="url(#2)"
       id="ellipse44" />
    <g
       fill="#e3e8ea"
       stroke-width="1.317"
       id="g46">
      <path
         d="m-9.946 8.31c.04 0 .075-.015.104-.044.029-.029.044-.064.044-.104v-.743c0-.04-.015-.075-.044-.104-.029-.029-.064-.044-.104-.044-.04 0-.075.015-.104.044-.029.029-.044.064-.044.104v.743c0 .04.015.075.044.104.029.029.064.044.104.044"
         opacity=".668"
         id="path48" />
      <path
         d="m-9.148 7.912c-.062-.125-.15-.229-.263-.313-.032-.025-.069-.034-.11-.029-.041.005-.073.025-.097.058-.025.032-.034.069-.028.11.006.041.025.073.057.098.076.057.134.127.176.21.041.083.062.171.062.265 0 .08-.016.157-.047.23-.031.073-.074.136-.127.19-.053.053-.117.096-.19.127-.073.031-.15.047-.23.047-.08 0-.157-.016-.23-.047-.073-.031-.136-.074-.19-.127-.053-.053-.096-.117-.127-.19-.031-.073-.047-.15-.047-.23 0-.094.021-.182.062-.265.041-.083.1-.153.176-.21.032-.025.052-.057.057-.098.006-.041-.004-.077-.028-.11-.024-.033-.056-.053-.097-.058-.041-.005-.078.004-.111.029-.113.084-.201.189-.263.313-.062.125-.093.257-.093.398 0 .121.024.236.071.346.047.11.111.205.19.284.08.08.174.143.284.19.11.047.225.071.346.071.121 0 .236-.024.346-.071.11-.047.205-.111.284-.19.08-.08.143-.174.19-.284.047-.11.071-.225.071-.346 0-.141-.031-.274-.093-.398"
         opacity=".668"
         id="path50" />
    </g>
    <path
       d="m -19.766,-24.536 -3.502,-0.006 c -0.133,0 -0.261,0.042 -0.356,0.118 -0.094,0.076 -0.148,0.178 -0.148,0.286 l -0.006,2.822 c -10e-5,0.224 0.224,0.405 0.501,0.405 l 0.488,0 -0.005,2.15 -3.712,2.01 0.018,-8.216 1.291,0.002 c 0.139,0 0.267,-0.058 0.339,-0.153 0.072,-0.096 0.078,-0.214 0.015,-0.313 l -2.546,-3.976 c -0.068,-0.106 -0.204,-0.172 -0.352,-0.173 -0.148,0 -0.284,0.066 -0.352,0.172 l -2.564,3.968 c -0.064,0.099 -0.059,0.218 0.012,0.313 0.072,0.096 0.201,0.154 0.339,0.154 l 1.292,0.002 -0.025,11.379 -3.996,-2.175 0.004,-1.707 c 0.62,-0.329 1.03,-0.894 1.032,-1.537 0.002,-1.02 -1.022,-1.848 -2.289,-1.85 -1.265,-0.002 -2.292,0.824 -2.294,1.844 -0.002,0.643 0.407,1.209 1.025,1.54 l -0.005,2.248 c -1e-4,0.339 0.207,0.656 0.557,0.845 l 5.962,3.244 -0.007,3.509 c -0.841,0.363 -1.42,1.069 -1.422,1.892 -0.002,1.193 1.195,2.161 2.675,2.164 1.482,0.002 2.684,-0.963 2.686,-2.156 0.002,-0.823 -0.574,-1.53 -1.413,-1.895 l 0.015,-6.673 5.683,-3.069 c 0.068,-0.037 0.131,-0.079 0.188,-0.125 0.235,-0.188 0.371,-0.447 0.371,-0.719 l 0.006,-2.691 0.489,0 c 0.133,0 0.261,-0.043 0.355,-0.118 0.094,-0.076 0.147,-0.178 0.148,-0.286 l 0.005,-2.822 c 10e-5,-0.224 -0.223,-0.405 -0.501,-0.405 z"
       id="path52"
       inkscape:connector-curvature="0"
       style="fill:url(#3);stroke:#909296;stroke-width:0.095" />
  </g>
</svg>
